<svg width="262" height="241" viewBox="0 0 262 241" fill="none" xmlns="http://www.w3.org/2000/svg">
<path d="M212.25 0C185.84 0.113281 166.207 3.75 152 10.0352C141.398 14.7227 137.25 18.2695 137.25 30.2852V156.25C153.488 141.602 167.898 137.5 224.75 137.5V0H212.25ZM49.75 0C76.1602 0.113281 95.793 3.75 110 10.0352C120.602 14.7227 124.75 18.2695 124.75 30.2852V156.25C108.512 141.602 94.1016 137.5 37.25 137.5V0H49.75Z" fill="#002E29"/>
<path d="M3.0973 228.25V192.614H17.3658C19.9875 192.614 22.1741 193.002 23.9258 193.779C25.6774 194.557 26.9941 195.636 27.8757 197.016C28.7573 198.385 29.1982 199.962 29.1982 201.749C29.1982 203.141 28.9197 204.365 28.3629 205.42C27.8061 206.464 27.0405 207.323 26.0661 207.996C25.1032 208.657 24.0012 209.127 22.7599 209.405V209.753C24.1172 209.811 25.3874 210.194 26.5707 210.902C27.7655 211.609 28.7341 212.601 29.4766 213.877C30.219 215.142 30.5902 216.65 30.5902 218.401C30.5902 220.292 30.1204 221.98 29.1808 223.465C28.2527 224.938 26.8781 226.104 25.0568 226.962C23.2356 227.821 20.9909 228.25 18.3228 228.25H3.0973ZM10.6317 222.09H16.7741C18.8738 222.09 20.4051 221.69 21.3679 220.89C22.3307 220.078 22.8121 218.999 22.8121 217.653C22.8121 216.667 22.5743 215.797 22.0987 215.043C21.6231 214.289 20.9445 213.697 20.0629 213.268C19.1928 212.839 18.1546 212.624 16.9482 212.624H10.6317V222.09ZM10.6317 207.526H16.2173C17.2498 207.526 18.1662 207.346 18.9666 206.987C19.7786 206.615 20.4167 206.093 20.8807 205.42C21.3563 204.748 21.5941 203.941 21.5941 203.002C21.5941 201.714 21.1359 200.676 20.2195 199.887C19.3146 199.098 18.027 198.704 16.3565 198.704H10.6317V207.526ZM47.4296 228.772C44.7267 228.772 42.3892 228.198 40.4172 227.049C38.4567 225.889 36.9429 224.277 35.8756 222.212C34.8084 220.136 34.2748 217.728 34.2748 214.991C34.2748 212.23 34.8084 209.817 35.8756 207.752C36.9429 205.676 38.4567 204.063 40.4172 202.915C42.3892 201.755 44.7267 201.175 47.4296 201.175C50.1325 201.175 52.4642 201.755 54.4246 202.915C56.3967 204.063 57.9163 205.676 58.9836 207.752C60.0508 209.817 60.5844 212.23 60.5844 214.991C60.5844 217.728 60.0508 220.136 58.9836 222.212C57.9163 224.277 56.3967 225.889 54.4246 227.049C52.4642 228.198 50.1325 228.772 47.4296 228.772ZM47.4644 223.03C48.694 223.03 49.7207 222.682 50.5443 221.986C51.3679 221.278 51.9885 220.315 52.4062 219.097C52.8354 217.879 53.05 216.493 53.05 214.939C53.05 213.384 52.8354 211.998 52.4062 210.78C51.9885 209.562 51.3679 208.599 50.5443 207.891C49.7207 207.184 48.694 206.83 47.4644 206.83C46.2232 206.83 45.1791 207.184 44.3323 207.891C43.4971 208.599 42.8649 209.562 42.4356 210.78C42.018 211.998 41.8092 213.384 41.8092 214.939C41.8092 216.493 42.018 217.879 42.4356 219.097C42.8649 220.315 43.4971 221.278 44.3323 221.986C45.1791 222.682 46.2232 223.03 47.4644 223.03ZM77.4804 228.772C74.7775 228.772 72.44 228.198 70.468 227.049C68.5075 225.889 66.9936 224.277 65.9264 222.212C64.8592 220.136 64.3256 217.728 64.3256 214.991C64.3256 212.23 64.8592 209.817 65.9264 207.752C66.9936 205.676 68.5075 204.063 70.468 202.915C72.44 201.755 74.7775 201.175 77.4804 201.175C80.1833 201.175 82.5149 201.755 84.4754 202.915C86.4475 204.063 87.9671 205.676 89.0344 207.752C90.1016 209.817 90.6352 212.23 90.6352 214.991C90.6352 217.728 90.1016 220.136 89.0344 222.212C87.9671 224.277 86.4475 225.889 84.4754 227.049C82.5149 228.198 80.1833 228.772 77.4804 228.772ZM77.5152 223.03C78.7448 223.03 79.7715 222.682 80.5951 221.986C81.4187 221.278 82.0393 220.315 82.4569 219.097C82.8862 217.879 83.1008 216.493 83.1008 214.939C83.1008 213.384 82.8862 211.998 82.4569 210.78C82.0393 209.562 81.4187 208.599 80.5951 207.891C79.7715 207.184 78.7448 206.83 77.5152 206.83C76.2739 206.83 75.2299 207.184 74.3831 207.891C73.5479 208.599 72.9156 209.562 72.4864 210.78C72.0688 211.998 71.86 213.384 71.86 214.939C71.86 216.493 72.0688 217.879 72.4864 219.097C72.9156 220.315 73.5479 221.278 74.3831 221.986C75.2299 222.682 76.2739 223.03 77.5152 223.03ZM102.172 220.559L102.189 211.667H103.268L111.829 201.523H120.338L108.836 214.956H107.079L102.172 220.559ZM95.4552 228.25V192.614H102.868V228.25H95.4552ZM112.16 228.25L104.295 216.609L109.236 211.371L120.843 228.25H112.16ZM154.787 202.863C154.648 201.459 154.05 200.368 152.994 199.591C151.939 198.814 150.506 198.425 148.697 198.425C147.467 198.425 146.429 198.599 145.582 198.947C144.735 199.284 144.085 199.754 143.633 200.357C143.192 200.96 142.972 201.645 142.972 202.41C142.949 203.048 143.082 203.605 143.372 204.081C143.674 204.556 144.085 204.968 144.607 205.316C145.129 205.652 145.733 205.948 146.417 206.203C147.102 206.447 147.832 206.656 148.61 206.83L151.811 207.596C153.366 207.944 154.793 208.408 156.092 208.988C157.391 209.568 158.516 210.281 159.468 211.128C160.419 211.975 161.155 212.972 161.677 214.121C162.211 215.269 162.484 216.586 162.495 218.071C162.484 220.252 161.927 222.142 160.825 223.743C159.734 225.333 158.157 226.568 156.092 227.45C154.039 228.32 151.562 228.755 148.662 228.755C145.785 228.755 143.279 228.314 141.145 227.432C139.022 226.551 137.363 225.246 136.168 223.517C134.985 221.777 134.364 219.625 134.306 217.061H141.597C141.678 218.256 142.021 219.254 142.624 220.054C143.239 220.843 144.056 221.441 145.077 221.847C146.11 222.241 147.276 222.438 148.575 222.438C149.851 222.438 150.959 222.253 151.898 221.881C152.849 221.51 153.586 220.994 154.108 220.333C154.63 219.672 154.891 218.912 154.891 218.053C154.891 217.253 154.653 216.58 154.178 216.035C153.714 215.49 153.029 215.026 152.124 214.643C151.231 214.26 150.135 213.912 148.836 213.599L144.955 212.624C141.951 211.893 139.579 210.751 137.839 209.196C136.099 207.642 135.234 205.548 135.246 202.915C135.234 200.757 135.809 198.872 136.969 197.26C138.14 195.647 139.747 194.388 141.789 193.484C143.83 192.579 146.15 192.126 148.749 192.126C151.394 192.126 153.702 192.579 155.674 193.484C157.658 194.388 159.201 195.647 160.303 197.26C161.405 198.872 161.973 200.74 162.008 202.863H154.787ZM181.64 201.523V207.091H165.545V201.523H181.64ZM169.199 195.119H176.611V220.037C176.611 220.721 176.716 221.255 176.925 221.638C177.133 222.009 177.423 222.27 177.795 222.421C178.177 222.572 178.618 222.647 179.117 222.647C179.465 222.647 179.813 222.618 180.161 222.56C180.509 222.49 180.776 222.438 180.962 222.403L182.127 227.919C181.756 228.035 181.234 228.169 180.561 228.32C179.889 228.482 179.071 228.581 178.108 228.615C176.321 228.685 174.755 228.447 173.41 227.902C172.076 227.357 171.037 226.51 170.295 225.362C169.553 224.213 169.187 222.763 169.199 221.011V195.119ZM198.258 228.772C195.555 228.772 193.217 228.198 191.245 227.049C189.285 225.889 187.771 224.277 186.704 222.212C185.637 220.136 185.103 217.728 185.103 214.991C185.103 212.23 185.637 209.817 186.704 207.752C187.771 205.676 189.285 204.063 191.245 202.915C193.217 201.755 195.555 201.175 198.258 201.175C200.961 201.175 203.292 201.755 205.253 202.915C207.225 204.063 208.744 205.676 209.812 207.752C210.879 209.817 211.413 212.23 211.413 214.991C211.413 217.728 210.879 220.136 209.812 222.212C208.744 224.277 207.225 225.889 205.253 227.049C203.292 228.198 200.961 228.772 198.258 228.772ZM198.293 223.03C199.522 223.03 200.549 222.682 201.372 221.986C202.196 221.278 202.817 220.315 203.234 219.097C203.664 217.879 203.878 216.493 203.878 214.939C203.878 213.384 203.664 211.998 203.234 210.78C202.817 209.562 202.196 208.599 201.372 207.891C200.549 207.184 199.522 206.83 198.293 206.83C197.051 206.83 196.007 207.184 195.16 207.891C194.325 208.599 193.693 209.562 193.264 210.78C192.846 211.998 192.637 213.384 192.637 214.939C192.637 216.493 192.846 217.879 193.264 219.097C193.693 220.315 194.325 221.278 195.16 221.986C196.007 222.682 197.051 223.03 198.293 223.03ZM216.233 228.25V201.523H223.419V206.186H223.697C224.185 204.527 225.002 203.274 226.151 202.428C227.299 201.569 228.622 201.14 230.118 201.14C230.489 201.14 230.89 201.163 231.319 201.21C231.748 201.256 232.125 201.32 232.45 201.401V207.978C232.102 207.874 231.62 207.781 231.006 207.7C230.391 207.619 229.828 207.578 229.318 207.578C228.227 207.578 227.253 207.816 226.394 208.292C225.548 208.756 224.875 209.405 224.376 210.24C223.889 211.076 223.645 212.038 223.645 213.129V228.25H216.233ZM247.219 228.772C244.469 228.772 242.103 228.215 240.119 227.102C238.147 225.976 236.627 224.387 235.56 222.334C234.493 220.269 233.959 217.827 233.959 215.008C233.959 212.259 234.493 209.846 235.56 207.77C236.627 205.693 238.13 204.075 240.067 202.915C242.016 201.755 244.301 201.175 246.923 201.175C248.686 201.175 250.327 201.459 251.847 202.027C253.378 202.584 254.712 203.425 255.849 204.55C256.998 205.676 257.891 207.091 258.529 208.796C259.167 210.49 259.486 212.473 259.486 214.747V216.783H236.917V212.189H252.508C252.508 211.122 252.276 210.177 251.812 209.353C251.348 208.529 250.704 207.886 249.881 207.422C249.069 206.946 248.123 206.708 247.045 206.708C245.919 206.708 244.922 206.969 244.052 207.491C243.193 208.002 242.52 208.692 242.033 209.562C241.546 210.42 241.297 211.377 241.285 212.433V216.8C241.285 218.123 241.529 219.266 242.016 220.228C242.515 221.191 243.216 221.934 244.121 222.456C245.026 222.978 246.099 223.239 247.34 223.239C248.164 223.239 248.918 223.123 249.602 222.891C250.287 222.659 250.873 222.311 251.36 221.847C251.847 221.383 252.218 220.814 252.474 220.141L259.329 220.594C258.981 222.241 258.268 223.679 257.189 224.909C256.122 226.127 254.741 227.078 253.048 227.763C251.366 228.436 249.423 228.772 247.219 228.772Z" fill="#002E29"/>
</svg>
